<svg width="1378" height="366" viewBox="0 0 1378 366" fill="none" xmlns="http://www.w3.org/2000/svg">
<path d="M623.781 7.73704L618.848 15.6037L621.381 38.2704C623.914 60.137 627.248 102.27 628.848 131.737L629.648 145.87L636.448 144.67C640.314 143.87 643.514 143.204 643.781 143.07C643.914 142.804 642.848 123.337 641.248 99.737C639.648 76.137 638.714 56.537 639.114 56.137C639.514 55.6037 642.048 56.937 644.581 58.937C647.248 60.937 649.381 62.0037 649.381 61.4704C649.114 58.137 630.848 0.27037 629.914 0.00370336C629.248 -0.12963 626.448 3.33704 623.781 7.73704Z" fill="white"/>
<path d="M579.38 3.73713C575.78 4.93713 549.38 14.1371 520.713 24.0038C425.38 56.9371 369.78 78.0038 316.713 101.204C281.78 116.537 282.847 115.87 278.313 127.47C276.313 132.804 274.847 137.47 275.113 137.87C275.513 138.137 280.447 136.137 286.18 133.204C345.113 103.604 439.647 66.2705 540.047 32.9371L583.38 18.5371L585.113 12.6705C586.047 9.6038 586.58 5.73714 586.447 4.13713C586.047 1.33713 586.047 1.33713 579.38 3.73713Z" fill="white"/>
<path d="M694.847 12.1371C688.847 22.9371 688.447 25.8704 691.514 34.4038C693.114 39.0704 693.914 50.2704 694.847 86.8038C695.647 112.27 695.914 133.47 695.514 133.87C695.247 134.27 684.847 130.537 672.447 125.737C660.181 120.937 649.647 116.937 649.114 116.937C648.447 116.937 648.047 122.004 648.047 128.137V139.47L653.514 142.537L658.981 145.604L617.781 155.87C551.514 172.537 482.58 187.07 444.714 192.27C431.247 194.137 421.114 194.404 381.38 193.87C350.18 193.337 328.314 192.404 317.38 191.07C264.447 184.27 242.847 176.937 223.247 159.07C216.18 152.537 211.78 146.804 204.047 133.87C193.114 115.604 190.447 113.204 181.914 114.937C172.714 116.537 159.114 133.47 150.98 153.204C145.914 165.337 146.047 180.537 151.114 194.27C153.247 199.737 155.247 205.204 155.514 206.27C156.047 207.87 143.514 215.337 104.447 236.537C46.3138 268.137 39.5138 271.737 30.0471 274.804C23.9138 276.937 23.1138 276.937 17.7805 274.937C10.0471 272.004 8.04712 268.67 8.04712 259.204C8.04712 249.604 11.1138 241.604 26.1805 211.337C36.1805 191.337 39.6471 180.804 36.4471 180.937C35.7805 181.07 30.4471 188.404 24.3138 197.337C3.11379 228.67 -4.08621 254.404 2.18046 275.47C4.84712 284.537 11.9138 292.404 19.1138 294.404C28.3138 296.804 38.8471 295.337 46.1805 290.537C49.7805 288.27 52.7138 286.537 52.9805 286.67C53.1138 286.937 52.3138 290.67 51.1138 294.937C49.9138 299.47 48.8471 308.27 48.8471 315.07C48.7138 327.07 48.8471 327.337 53.7805 334.537C60.8471 344.937 64.8471 346.67 78.7138 346.004C91.5138 345.47 88.9805 346.67 129.114 320.67C150.58 306.67 188.58 287.204 204.18 282.27C212.714 279.47 214.314 279.337 222.847 280.804C234.847 282.804 241.647 286.004 242.98 290.27C250.047 314.937 252.314 320.67 256.847 326.004C262.847 333.07 271.38 337.737 274.18 335.47C276.847 333.204 278.98 324.27 277.914 318.937C277.514 316.404 277.38 314.27 277.914 314.27C278.314 314.27 286.18 317.204 295.38 320.937C354.447 344.537 439.114 359.07 536.047 362.404C557.647 363.07 581.647 364.27 589.38 364.937C607.114 366.404 660.981 365.47 665.914 363.604C668.047 362.804 682.314 362.27 701.381 362.27C733.914 362.27 750.447 361.204 828.047 354.27C906.047 347.204 954.981 340.937 1002.05 332.137C1066.18 320.137 1130.71 306.27 1176.18 294.937C1189.25 291.604 1200.18 288.937 1200.58 288.937C1200.85 288.937 1202.31 292.937 1203.91 298.004C1210.71 320.404 1227.65 322.137 1251.25 302.937C1259.51 296.27 1260.85 295.87 1262.05 299.47C1262.45 300.937 1265.25 304.27 1268.05 306.804C1272.18 310.537 1274.58 311.604 1278.45 311.604C1286.18 311.604 1296.85 305.87 1305.38 296.937L1312.98 289.07L1318.85 295.07C1330.85 307.47 1341.65 310.937 1355.51 306.937C1368.85 303.07 1374.71 294.004 1374.71 277.47C1374.71 268.004 1370.71 252.537 1360.85 224.67L1353.51 203.737L1360.18 203.337L1366.85 202.937L1363.51 196.27C1361.65 192.537 1356.71 185.47 1352.58 180.404L1345.11 171.337L1341.25 181.07C1339.11 186.537 1337.38 191.604 1337.38 192.537C1337.38 193.47 1342.71 212.137 1349.38 234.137C1355.91 256.27 1361.38 275.07 1361.38 275.87C1361.38 276.804 1360.71 279.87 1359.91 282.537C1358.58 287.604 1358.58 287.604 1351.51 287.604C1336.98 287.604 1324.58 280.67 1318.85 269.337L1315.11 261.737L1312.05 267.604C1303.91 283.604 1291.91 294.404 1285.11 291.737C1281.25 290.27 1277.11 285.47 1274.85 279.87C1273.38 276.404 1273.51 275.07 1275.91 270.404C1277.51 267.337 1278.45 264.937 1278.05 264.937C1276.05 264.937 1268.05 268.937 1268.05 270.004C1268.05 272.27 1252.98 287.737 1247.65 290.937C1239.11 295.87 1232.45 296.404 1224.18 292.804C1218.18 290.27 1216.71 288.937 1214.58 283.87C1213.25 280.67 1212.05 276.004 1212.05 273.604C1212.05 271.07 1211.51 268.804 1210.98 268.404C1210.45 268.137 1197.38 271.337 1182.05 275.737C1136.31 288.67 1026.45 309.604 951.781 319.47C895.647 326.937 832.847 333.204 780.847 336.27C763.247 337.337 733.381 339.07 714.714 340.27C675.781 342.537 568.98 343.07 546.714 340.937C538.98 340.27 511.78 338.404 486.047 336.937C422.714 333.204 384.447 326.804 336.447 311.47C316.714 305.204 287.914 294.404 283.247 291.47C278.047 288.404 269.114 278.67 261.647 268.137C258.58 263.604 254.18 258.404 252.047 256.27L248.18 252.537L247.38 256.404C245.78 263.604 245.514 264.004 242.314 263.07C219.514 256.67 218.714 256.537 209.514 258.804C198.18 261.47 179.114 271.07 137.114 295.204C75.7805 330.404 68.3138 332.937 61.6471 321.07C59.6471 317.47 58.7138 313.604 58.7138 308.537C58.7138 299.604 63.1138 284.804 67.1138 280.404C70.7138 276.537 112.314 251.47 132.98 240.804C159.514 227.07 170.447 225.737 189.38 233.87C204.98 240.404 206.58 240.404 209.114 233.204C211.247 226.537 210.447 219.604 206.98 216.537C205.78 215.47 198.58 211.47 191.114 207.604C157.514 190.67 150.314 172.537 168.18 149.47C171.114 145.737 176.047 141.204 179.38 139.47C184.98 136.537 185.647 136.404 188.847 138.27C190.98 139.47 196.314 146.67 201.514 155.47C213.647 175.604 218.447 181.737 228.447 189.204C238.447 196.937 251.247 202.404 271.114 207.604C312.714 218.537 340.58 220.137 400.58 215.07C423.247 213.07 442.047 211.87 442.314 212.137C442.714 212.537 440.58 218.937 437.647 226.537C428.847 249.337 426.18 260.137 426.18 273.87C426.047 284.137 426.447 286.67 428.847 289.737C434.714 297.604 437.914 298.937 451.114 298.804C457.914 298.804 466.047 298.004 469.38 297.204C479.38 294.404 495.914 285.47 512.714 273.47C535.514 257.337 567.247 241.737 596.18 232.27C620.981 224.27 627.781 220.404 636.581 209.604C640.447 204.937 642.181 200.804 644.847 190.804C646.581 183.737 648.047 177.07 648.047 176.137C648.047 173.87 634.047 173.47 632.714 175.604C632.314 176.27 631.647 181.337 631.247 186.537C630.047 202.804 631.781 201.07 609.114 208.937C585.38 216.937 559.114 227.47 546.58 233.737C537.114 238.404 487.38 268.537 480.447 273.737C472.847 279.47 459.78 284.937 453.647 284.937C448.047 284.937 437.78 280.804 435.78 277.737C433.514 274.404 434.847 262.004 438.714 250.004C443.914 234.27 454.447 211.87 457.247 211.07C459.114 210.404 552.447 188.004 612.714 173.604C654.581 163.604 668.181 161.737 696.047 161.604C720.314 161.604 720.981 161.737 740.581 166.67C751.381 169.47 760.447 171.604 760.714 171.337C763.514 167.737 771.647 152.004 770.981 151.47C770.181 150.67 713.914 136.937 711.781 136.937C711.381 136.937 710.714 125.07 710.181 110.537C709.781 96.1371 708.981 78.4038 708.447 71.0704C707.781 58.6704 707.781 58.0038 710.181 58.6704C711.647 59.2038 714.314 59.8704 716.181 60.2704L719.781 61.2038L710.847 31.7371C706.047 15.4704 701.647 2.27044 701.114 2.27044C700.714 2.27044 697.781 6.67044 694.847 12.1371Z" fill="white"/>
<path d="M745.514 10.4037C742.448 14.937 740.181 19.737 740.314 20.8037C740.581 22.4037 743.114 23.2037 749.114 23.8703C760.848 25.2037 772.048 28.537 772.048 30.937C772.048 33.337 767.114 36.8037 753.781 43.337C747.781 46.4037 742.581 49.337 742.181 50.0037C741.248 51.6037 754.048 49.4703 761.248 46.937C768.181 44.537 774.048 40.4037 779.381 34.4037C786.314 26.537 789.381 21.2037 789.381 17.0703C789.381 14.2703 788.448 12.4037 786.448 11.0703C782.181 8.40368 767.248 4.00368 758.581 2.93701L751.114 2.00368L745.514 10.4037Z" fill="white"/>
<path d="M896.048 19.6038C896.048 20.4038 897.515 27.3371 899.382 35.2038L902.715 49.3371L899.115 53.2038C894.448 58.1371 891.648 58.8038 886.982 56.4038C880.715 53.2038 878.448 43.7371 881.515 34.9371C882.582 32.0038 882.715 29.4704 881.782 26.8038C880.182 22.1371 879.648 22.1371 859.382 28.5371C841.648 34.0038 825.915 40.6704 811.515 48.6704C805.515 52.0038 799.115 55.6038 797.115 56.5371C792.048 59.0704 786.715 65.8704 786.715 69.6038C786.715 72.4038 788.582 71.6038 808.848 59.4704C831.515 45.7371 844.182 40.4038 863.915 36.2704C878.315 33.3371 877.382 32.6704 877.382 45.2038C877.382 58.0038 878.982 64.9371 882.715 68.2704C887.115 72.2704 895.515 69.6038 900.848 62.6704C904.982 57.2038 905.115 57.0704 907.515 59.7371C912.048 64.8038 918.448 67.8704 921.115 66.4038C924.982 64.4038 928.448 54.6704 927.382 49.0704C926.182 42.6704 920.048 27.6038 918.582 27.6038C918.048 27.6038 917.115 29.6038 916.582 32.1371C916.048 35.6038 916.715 38.6704 919.248 44.4038C921.115 48.5371 922.715 52.1371 922.715 52.5371C922.715 52.8038 920.448 52.9371 917.782 52.6704C913.248 52.2704 912.448 51.6038 909.782 46.1371C908.182 42.6704 906.182 36.2704 905.515 31.8704C904.848 27.3371 903.515 22.5371 902.715 21.0704C901.248 18.2704 896.048 17.2038 896.048 19.6038Z" fill="white"/>
<path d="M670.314 35.8703C661.114 47.337 656.314 62.6703 658.981 72.4037C660.581 78.137 666.314 84.937 669.514 84.937C672.981 84.937 678.714 79.2037 678.714 75.737C678.714 73.6037 677.648 73.0703 673.781 72.6703C666.314 72.0037 665.914 68.2703 671.514 48.0037C674.048 38.8037 675.914 30.937 675.514 30.6703C675.248 30.4037 672.981 32.6703 670.314 35.8703Z" fill="white"/>
<path d="M966.714 38.6703L961.114 46.2703L963.248 52.537C965.648 59.337 967.914 79.0703 974.714 148.004C978.848 189.47 978.848 190.404 976.448 195.337C973.514 201.47 965.648 205.604 935.648 216.937C916.981 223.87 910.981 226.937 884.981 243.07C830.048 277.07 812.048 286.27 800.181 286.27C794.581 286.27 793.648 285.337 790.714 277.737C789.648 274.67 790.448 273.737 804.448 262.537C812.714 256.004 820.181 249.604 821.114 248.537C822.448 246.937 823.781 246.804 827.114 247.737C842.981 252.27 851.514 242.137 844.048 227.604C841.114 221.737 836.848 218.27 832.581 218.27C828.181 218.27 820.981 227.204 818.181 236.27C815.914 243.87 815.114 244.67 803.914 253.337L792.048 262.404V257.337C792.181 244.27 798.448 225.737 808.181 210.004C810.314 206.404 812.048 203.204 812.048 202.937C812.048 202.537 810.181 203.204 808.048 204.27C802.714 207.07 796.848 215.204 790.714 228.27C784.981 240.404 783.114 247.337 781.914 260.404L781.114 269.604L741.781 291.47C709.514 309.337 702.848 313.47 704.181 315.07C704.981 316.137 706.714 316.937 707.914 316.937C710.448 316.937 757.648 293.87 771.781 285.737C776.448 283.07 780.714 280.937 781.248 280.937C781.781 280.937 782.848 283.47 783.781 286.537C787.514 300.27 795.114 305.87 807.781 304.404C818.048 303.204 833.114 296.537 845.114 287.87C895.914 251.204 899.514 248.937 926.048 238.937C954.981 227.87 973.914 217.87 978.848 211.204C982.981 205.604 985.914 196.67 987.381 186.27C988.048 181.47 983.114 102.937 980.848 83.337L980.314 78.4037L986.181 78.0037L992.048 77.6037L984.181 58.137C979.914 47.4703 975.514 37.0703 974.448 34.937L972.448 31.2037L966.714 38.6703ZM836.981 232.404C838.181 235.604 834.181 238.804 830.181 237.737C826.848 236.937 825.514 233.337 827.648 231.204C829.381 229.337 836.181 230.27 836.981 232.404Z" fill="white"/>
<path d="M584.181 35.2037C581.115 37.337 573.248 52.6703 571.381 60.0037C569.915 65.6037 568.448 65.4703 564.581 59.337C562.715 56.137 559.515 52.0037 557.648 49.8703C550.581 42.2703 541.381 47.4703 545.381 56.937C546.715 60.2703 547.781 60.937 551.515 60.937C557.115 60.937 560.048 63.737 565.515 74.537L569.781 82.937L572.981 71.0703C576.581 57.337 580.048 49.0703 583.115 46.4037C584.981 44.937 586.048 45.0703 590.048 47.4703C596.181 51.0703 598.448 51.0703 600.181 47.0703C602.048 43.2037 598.981 37.8703 593.248 34.8037C588.581 32.4037 588.048 32.4037 584.181 35.2037Z" fill="white"/>
<path d="M316.314 48.9371C314.714 51.4704 312.048 57.4704 310.581 62.2704C308.181 69.7371 307.914 71.7371 309.381 76.8037C310.181 80.0037 312.448 84.1371 314.181 85.8704C316.981 88.6704 318.448 89.0704 322.314 88.5371C330.714 87.0704 338.848 78.5371 342.048 68.0037C343.114 64.2704 336.981 57.3371 330.981 55.7371C327.114 54.5371 326.448 54.8037 323.381 58.8037C319.114 64.4037 319.248 64.9371 324.048 64.9371C328.314 64.9371 334.714 67.4704 334.714 69.0704C334.714 69.6037 333.114 71.8704 331.248 74.1371C327.114 79.0704 321.381 79.6037 317.381 75.6037C314.048 72.2704 314.048 68.2704 317.514 58.2704C318.981 53.8704 320.048 48.9371 319.781 47.3371C319.381 44.5371 319.114 44.5371 316.314 48.9371Z" fill="white"/>
<path d="M1025.25 61.0703L1020.98 69.6037L1023.25 88.2703C1026.98 119.47 1029.11 144.804 1032.05 192.27C1033.65 217.204 1035.25 238.27 1035.51 239.204C1035.78 240.404 1036.98 240.537 1040.05 239.47C1043.91 238.137 1044.05 237.737 1044.05 230.537C1044.05 226.27 1042.58 195.87 1040.71 162.937C1038.85 129.87 1037.38 102.537 1037.38 102.004C1037.38 101.47 1039.91 101.87 1042.85 102.937C1045.91 104.004 1048.58 104.937 1048.71 104.937C1049.11 104.937 1030.71 53.8703 1030.05 53.2037C1029.78 52.937 1027.65 56.537 1025.25 61.0703Z" fill="white"/>
<path d="M1075.25 78.537L1075.65 96.2704L1067.91 104.67C1059.78 113.337 1057.91 117.337 1059.25 122.937C1060.58 128.27 1064.31 129.337 1073.78 126.937C1084.05 124.27 1095.11 119.204 1114.05 108.27C1122.05 103.604 1132.05 98.8037 1136.05 97.6037C1140.05 96.4037 1144.85 95.0704 1146.71 94.537C1148.58 94.0037 1150.18 92.537 1150.45 91.2037C1150.85 89.337 1149.91 88.937 1145.11 88.937C1138.45 88.937 1132.05 91.737 1110.31 104.137C1098.85 110.67 1090.98 114.004 1080.58 116.937C1072.71 119.07 1065.91 120.537 1065.25 120.137C1062.58 118.537 1064.45 114.804 1071.38 107.47C1075.38 103.204 1078.71 99.2037 1078.71 98.4037C1078.71 97.6037 1081.51 96.937 1085.25 96.937C1093.78 96.937 1095.78 96.137 1098.18 91.4704C1099.91 88.0037 1099.91 87.2037 1097.51 82.6704C1094.05 75.8704 1079.91 60.937 1076.98 60.937C1074.98 60.937 1074.85 62.6704 1075.25 78.537ZM1084.05 80.937C1085.91 84.4037 1084.71 86.2704 1080.58 86.2704C1078.18 86.2704 1077.38 85.6037 1077.38 83.2037C1077.38 77.737 1081.51 76.2704 1084.05 80.937ZM1094.71 84.8037C1094.71 88.537 1091.25 91.0704 1088.71 88.937C1087.65 88.0037 1086.71 86.137 1086.71 84.8037C1086.71 82.937 1087.65 82.2704 1090.71 82.2704C1093.78 82.2704 1094.71 82.937 1094.71 84.8037Z" fill="white"/>
<path d="M757.647 75.0704C753.78 77.7371 750.447 84.5371 746.714 96.6704C745.114 101.87 743.514 106.27 743.247 106.27C742.98 106.27 741.647 104.004 740.18 101.07C733.78 88.6704 726.18 83.2037 720.447 87.0704C717.514 88.9371 717.247 89.8704 717.914 94.0037C718.847 100.137 721.647 102.27 727.514 101.337L732.047 100.537L737.114 111.47C739.78 117.337 742.314 122.27 742.714 122.27C743.114 122.27 744.847 117.337 746.447 111.204C749.78 99.4704 755.38 88.0037 758.847 85.8704C760.447 84.8037 762.18 85.3371 765.247 87.4704C769.38 90.4037 769.647 90.4037 772.18 88.2704C775.914 84.8037 775.38 81.7371 770.047 77.0704C764.714 72.4037 762.047 72.0037 757.647 75.0704Z" fill="white"/>
<path d="M486.714 77.2037C486.847 78.937 487.647 83.8704 488.714 88.2704L490.581 96.2704L486.981 99.2037C483.381 102.137 481.247 102.804 477.381 102.27C473.647 101.87 472.047 97.8704 472.047 89.337C472.047 81.0704 471.914 80.937 469.247 82.4037C466.581 83.737 466.447 84.6704 466.981 94.137C467.647 105.737 469.914 111.337 474.847 114.137C479.647 116.804 484.447 115.204 490.447 109.07L495.381 104.004L497.781 107.07C501.514 112.004 507.514 114.67 510.847 112.804C513.647 111.337 518.581 102.004 518.714 98.0037C518.714 94.6704 507.914 74.2704 506.581 75.0704C504.447 76.4037 505.381 80.937 509.381 88.937C511.647 93.337 513.381 97.4704 513.381 98.2704C513.381 99.2037 511.381 99.6037 508.447 99.337C504.047 98.937 503.114 98.2704 500.847 93.6037C493.514 77.737 486.581 69.8704 486.714 77.2037Z" fill="white"/>
<path d="M254.18 78.937C252.447 80.8037 249.113 87.4704 246.713 94.0037C244.313 100.404 241.913 106.137 241.38 106.67C240.847 107.337 238.713 104.937 236.713 101.337C230.98 91.337 228.313 88.937 222.58 88.937C216.58 88.937 215.513 91.0704 217.513 98.537C218.847 103.87 218.98 103.87 224.047 103.07C230.18 102.137 231.513 103.604 236.847 116.537C238.447 120.804 240.313 124.137 240.98 124.004C241.513 123.87 243.113 119.07 244.713 113.337C247.78 101.47 252.98 90.4037 256.313 88.4037C258.047 87.337 259.647 87.737 262.847 90.137L267.113 93.337L269.647 90.2704C272.98 86.137 272.713 83.8704 267.913 79.4704C262.847 74.6704 258.18 74.537 254.18 78.937Z" fill="white"/>
<path d="M411.114 105.337C405.78 116.537 400.847 128.537 399.914 132.004C395.78 148.67 404.18 170.27 414.847 170.27C420.18 170.27 426.98 162.537 434.18 148.27C441.114 134.537 440.047 131.47 431.647 141.47C427.114 146.804 425.78 147.604 421.38 147.604C417.247 147.604 415.647 146.804 413.38 143.604C407.514 135.337 408.447 126.004 417.514 102.804C421.114 93.4704 422.447 88.2704 421.78 86.937C420.847 85.4704 418.047 90.2704 411.114 105.337Z" fill="white"/>
<path d="M820.315 86.4036C803.115 89.737 791.781 107.337 798.181 120.537C799.915 123.87 807.115 130.937 819.381 141.337C829.648 150.004 838.048 157.87 838.048 158.67C838.048 159.604 829.648 164.537 819.381 169.604C798.315 180.137 782.581 191.07 722.048 236.27C673.515 272.67 662.581 280.004 642.448 289.47C625.248 297.604 618.315 299.604 606.581 299.604C598.848 299.604 598.048 299.337 593.381 294.537C584.715 285.87 584.048 278.937 588.848 244.937L589.515 240.27L586.181 244.004C584.315 246.004 581.248 252.537 579.248 258.67C574.715 272.804 574.048 295.337 577.781 305.204C580.715 312.67 588.581 320.27 595.648 322.137C612.048 326.67 628.448 320.537 672.715 293.337C698.181 277.604 710.315 268.67 758.315 230.537C794.315 201.87 808.715 192.804 833.381 182.67C850.848 175.47 852.048 175.47 852.048 181.737C852.048 192.27 860.448 201.204 875.248 206.27C882.448 208.67 883.381 208.804 885.515 206.804C888.581 204.004 889.381 199.07 887.915 190.137C886.848 183.737 882.581 168.804 879.381 160.804C878.715 159.07 886.048 156.137 919.515 144.137C965.915 127.737 965.781 127.737 965.115 115.07C964.581 107.07 968.981 108.67 920.715 98.937C866.715 88.137 832.715 83.8703 820.315 86.4036ZM861.381 110.137C866.848 110.937 878.048 112.537 886.048 113.604C903.248 115.87 928.048 121.07 928.048 122.27C928.048 123.07 861.648 149.07 859.515 148.937C858.848 148.937 855.781 146.67 852.848 143.87C849.781 140.937 842.715 136.137 837.248 133.07C821.381 123.87 813.115 118.004 810.581 113.737C808.715 110.67 808.581 109.47 809.781 108.537C811.781 107.07 848.181 108.27 861.381 110.137Z" fill="white"/>
<path d="M545.78 94.4037C532.446 96.937 526.713 102.404 526.713 112.67C526.713 118.804 528.58 120.937 534.18 120.937C537.78 120.937 551.646 123.337 562.18 125.87C564.313 126.404 565.646 125.337 567.913 121.604C570.846 116.67 570.846 116.67 577.38 117.47C580.98 118.004 592.046 120.67 602.046 123.604C611.913 126.537 620.58 128.937 621.113 128.937C621.646 128.937 621.913 123.604 621.646 117.204L621.246 105.337L605.646 100.404C597.113 97.737 586.846 94.937 582.846 94.2703C574.446 92.6703 553.78 92.8037 545.78 94.4037Z" fill="white"/>
<path d="M1204.05 111.737C1199.65 120.67 1196.05 128.804 1196.05 129.87C1196.05 130.937 1198.71 141.47 1201.91 153.337C1207.51 173.87 1211.38 185.07 1219.25 202.67C1223.25 211.604 1223.51 214.27 1220.71 220.137C1217.11 227.737 1205.11 231.737 1194.45 228.804C1187.65 227.07 1176.45 216.67 1171.78 208.004C1168.58 202.137 1168.31 199.87 1167.51 178.27C1167.11 165.47 1165.91 150.137 1164.85 144.27C1160.98 123.07 1158.31 111.604 1157.25 111.604C1156.71 111.604 1154.31 114.937 1151.91 119.07L1147.65 126.67L1149.91 143.604C1151.11 153.07 1152.85 170.004 1153.65 181.604C1155.25 202.004 1155.25 202.67 1152.18 211.337C1146.45 227.87 1144.05 231.604 1134.98 237.87C1127.65 242.804 1125.65 243.604 1119.51 243.604C1114.18 243.604 1111.51 242.804 1108.05 240.27C1101.65 235.604 1095.25 225.87 1093.25 217.87C1090.98 209.07 1091.25 192.27 1093.78 180.27C1094.98 175.07 1096.58 164.27 1097.51 156.004C1098.85 144.004 1098.85 140.404 1097.38 137.07C1094.31 129.737 1088.71 132.27 1080.31 144.937C1073.11 155.604 1070.31 163.47 1062.71 193.604C1053.91 228.537 1049.51 239.47 1042.18 244.27C1037.38 247.47 1032.31 244.67 1027.78 236.404C1023.25 227.87 1021.38 218.27 1019.51 192.27C1018.05 172.137 1017.78 171.07 1015.91 174.67C1014.31 177.604 1014.18 180.537 1014.85 188.67C1015.51 194.27 1016.58 206.537 1017.25 215.737C1019.11 238.137 1022.58 249.204 1030.05 256.67L1035.78 262.404L1032.71 277.337C1030.98 285.47 1029.78 292.404 1030.05 292.67C1030.31 292.937 1031.65 292.537 1033.11 291.737C1036.71 289.87 1040.18 280.537 1040.98 270.67C1041.65 263.47 1042.05 262.404 1044.85 261.737C1051.38 260.004 1061.25 235.604 1064.85 212.27C1066.98 197.737 1071.25 178.537 1073.65 172.27C1077.51 162.004 1085.38 156.137 1087.38 162.137C1087.78 163.604 1086.58 175.87 1084.71 189.47C1081.25 216.004 1081.38 223.604 1086.05 239.204C1090.18 252.937 1102.18 263.604 1113.78 263.604C1124.31 263.604 1129.51 261.07 1139.78 250.537C1149.78 240.137 1156.18 229.337 1159.25 217.47L1160.85 210.937L1165.25 223.204C1172.45 242.937 1182.18 251.604 1197.51 251.604C1209.38 251.47 1218.18 246.27 1225.25 234.937C1237.51 215.47 1236.31 200.404 1219.25 158.004C1216.05 150.004 1213.38 143.204 1213.38 142.937C1213.38 142.67 1215.25 142.137 1217.38 141.604C1222.18 140.537 1222.31 139.604 1218.18 134.67C1214.05 129.737 1209.38 120.937 1209.38 118.004C1209.38 112.67 1215.51 115.337 1229.38 127.07C1244.71 139.737 1248.71 144.67 1254.58 156.937C1265.38 179.737 1266.31 191.87 1258.58 213.604C1254.45 225.47 1241.51 252.537 1233.51 266.137C1231.11 270.004 1229.91 272.937 1230.71 272.67C1231.51 272.404 1237.51 267.47 1244.05 261.604C1254.45 252.27 1256.71 249.47 1261.91 238.937C1269.65 223.604 1272.18 214.27 1272.98 197.204C1275.11 156.937 1261.91 126.67 1234.31 108.404C1228.31 104.537 1220.85 100.004 1217.65 98.4038L1212.05 95.4704L1204.05 111.737Z" fill="white"/>
<path d="M1005.38 106.537C1000.85 112.804 996.047 126.937 996.047 134.137C996.047 141.47 998.447 148.67 1001.78 150.937C1007.65 155.07 1013.51 152.404 1015.38 144.537C1016.31 141.204 1016.05 140.937 1012.45 140.937C1004.31 140.937 1003.51 134.937 1008.71 115.337C1010.58 108.537 1012.05 102.537 1012.05 101.87C1012.05 99.3371 1008.98 101.47 1005.38 106.537Z" fill="white"/>
<path d="M106.181 127.47C103.914 129.87 100.714 136.404 98.0474 144.27L93.6474 157.204L87.1141 147.337C80.9807 138.004 80.4474 137.604 75.1141 137.204C69.9141 136.804 69.3807 137.07 68.5807 140.404C67.3807 145.337 70.4474 150.804 74.7141 151.337C82.8474 152.27 83.9141 152.937 87.9141 161.204C90.1807 165.604 92.0474 170.537 92.0474 172.004C92.0474 176.804 93.6474 173.337 98.7141 157.604C101.514 149.07 104.714 140.67 105.914 138.937C108.581 134.937 112.181 134.67 115.381 138.27C118.714 141.87 121.247 141.604 122.714 137.47C124.447 133.07 124.581 133.737 119.914 128.27C114.847 122.537 111.114 122.27 106.181 127.47Z" fill="white"/>
<path d="M491.779 125.87C488.846 129.337 484.713 137.87 482.179 146.27C480.846 150.27 479.513 154.404 479.246 155.47C478.446 158.137 475.113 155.07 471.779 148.404C467.646 140.004 464.179 136.937 459.246 136.937C453.246 136.937 451.246 140.537 453.913 146.937C455.646 151.07 456.446 151.604 460.579 151.604C463.113 151.604 466.179 152.67 467.513 153.87C469.513 156.004 474.313 165.47 476.579 172.137C477.913 176.004 479.246 173.47 482.579 160.937C486.046 147.737 491.246 135.604 493.513 135.604C494.313 135.604 497.113 136.937 499.779 138.537C504.313 141.337 504.446 141.337 506.179 138.937C508.979 135.204 508.446 132.27 504.179 127.737C499.779 123.07 494.846 122.404 491.779 125.87Z" fill="white"/>
<path d="M353.914 130.804C351.647 133.47 348.581 140.27 346.314 147.604L342.581 159.737L338.314 154.404C335.914 151.47 332.847 147.07 331.381 144.67C329.114 140.937 327.781 140.27 323.114 139.87C318.047 139.47 317.381 139.87 316.714 142.67C316.181 144.67 316.714 147.737 318.047 150.137C319.914 153.87 320.714 154.27 324.981 154.004C329.247 153.604 330.314 154.137 332.981 158.137C334.714 160.67 337.114 165.604 338.447 169.204C339.647 172.67 340.981 175.604 341.381 175.604C341.781 175.604 343.781 169.737 345.781 162.537C349.914 147.737 354.581 137.737 357.647 137.204C358.714 136.937 361.514 138.404 363.781 140.27C368.847 144.537 369.914 144.404 371.914 140.004C373.381 136.937 373.114 136.004 369.647 131.737C364.181 124.937 358.981 124.537 353.914 130.804Z" fill="white"/>
<path d="M783.913 136.67C772.98 152.004 773.913 172.937 785.38 172.937C792.98 172.937 794.847 163.604 787.38 162.27C784.18 161.737 783.247 160.804 782.98 158.004C782.58 155.07 786.047 141.07 788.98 133.47C790.313 129.87 787.38 131.737 783.913 136.67Z" fill="white"/>
<path d="M295.38 141.47C290.847 147.337 288.047 156.804 288.047 165.47C288.18 172.67 289.514 175.47 294.314 178.004C298.047 180.004 298.047 180.004 300.58 177.47C304.047 174.137 303.247 170.537 299.114 170.004C295.914 169.604 295.38 168.937 294.98 164.937C294.714 162.404 295.78 155.204 297.247 148.937C298.714 142.67 299.647 137.47 299.38 137.204C299.114 136.937 297.38 138.937 295.38 141.47Z" fill="white"/>
<path d="M927.513 157.204C921.646 164.004 918.313 174.404 918.18 186.537C918.046 194.67 918.446 195.737 921.913 199.47C927.38 205.204 932.846 205.07 935.246 199.337C937.646 193.87 936.713 191.604 932.046 191.604C930.046 191.604 927.646 190.67 926.713 189.604C924.446 186.937 925.78 176.004 930.046 162.67C931.78 157.07 933.113 152.137 932.846 151.87C932.58 151.737 930.18 154.004 927.513 157.204Z" fill="white"/>
<path d="M130.314 160.937C118.448 174.137 115.514 194.137 124.181 203.337C127.781 207.204 135.381 207.337 137.381 203.47C139.914 198.937 138.581 194.937 134.314 194.537C127.514 193.737 127.248 190.004 132.314 171.07C134.848 161.87 136.714 154.27 136.581 154.27C136.448 154.27 133.648 157.337 130.314 160.937Z" fill="white"/>
<path d="M1317.78 162.537C1314.18 166.537 1310.31 174.404 1307.25 184.004C1305.91 188.137 1304.18 191.47 1303.51 191.204C1302.71 191.07 1300.45 187.604 1298.45 183.604C1294.31 175.07 1290.45 171.604 1285.38 171.604C1281.38 171.604 1280.05 173.604 1280.05 179.07C1280.05 185.07 1282.45 187.737 1287.38 187.337C1292.71 187.07 1294.18 188.537 1299.78 200.137L1303.65 208.137L1305.91 200.804C1310.85 185.47 1314.98 175.87 1317.51 173.47C1320.18 171.07 1320.45 171.07 1325.51 173.87L1330.85 176.804L1333.38 173.87C1336.85 170.27 1336.85 170.004 1331.51 164.404C1326.31 158.804 1321.78 158.27 1317.78 162.537Z" fill="white"/>
<path d="M1124.98 164.137C1117.11 171.47 1110.98 190.27 1113.38 200.27C1114.71 206.004 1119.91 211.604 1124.18 211.604C1127.51 211.604 1132.05 207.07 1132.05 203.737C1132.05 201.737 1130.98 200.937 1127.78 200.67C1124.71 200.404 1122.85 199.204 1121.51 196.804C1119.65 193.47 1119.91 192.137 1124.58 177.604C1127.38 169.07 1129.38 161.737 1128.98 161.47C1128.71 161.204 1126.98 162.404 1124.98 164.137Z" fill="white"/>
<path d="M699.114 181.204C699.648 188.804 700.448 205.87 700.848 219.204C701.381 233.604 702.314 243.204 702.981 242.804C703.648 242.404 706.048 239.604 708.181 236.67L712.048 231.204V199.337V167.604H705.248H698.314L699.114 181.204Z" fill="white"/>
<path d="M61.6469 190.27C58.5802 194.804 56.0469 199.07 56.0469 199.737C56.0469 201.604 57.9135 202.137 70.0469 203.604C76.4469 204.404 83.2469 205.87 84.9802 206.804L88.3135 208.537L84.1802 212.404C81.9135 214.537 74.8469 219.204 68.4469 222.67C56.9802 228.937 56.8469 229.07 62.7135 228.137C77.9135 225.87 90.7135 218.67 98.3135 208.004C104.18 200.004 105.647 196.27 104.58 192.27C103.914 189.47 102.18 188.67 91.7802 186.27C85.1135 184.67 76.8469 183.07 73.3802 182.67L67.1135 182.004L61.6469 190.27Z" fill="white"/>
<path d="M659.381 207.87C653.914 219.07 653.781 218.937 667.114 224.804L676.047 228.804L681.381 218.137L686.714 207.47L677.114 202.937C671.781 200.404 666.714 198.27 665.647 198.27C664.714 198.27 661.914 202.537 659.381 207.87Z" fill="white"/>
<path d="M1291.11 217.604C1284.98 229.337 1283.51 236.137 1285.38 243.07C1288.31 253.604 1295.38 256.004 1306.45 250.404C1311.65 247.737 1317.25 240.537 1319.25 233.47C1320.45 229.737 1313.78 222.804 1307.78 221.604C1304.05 220.67 1302.98 221.07 1299.65 225.07L1295.91 229.604L1300.31 230.004C1305.51 230.404 1312.05 232.804 1312.05 234.27C1312.05 234.804 1310.31 237.204 1308.18 239.47C1305.11 242.67 1303.25 243.604 1299.11 243.604C1289.91 243.604 1288.71 239.204 1293.51 224.27C1294.98 219.604 1296.05 214.404 1295.78 212.67C1295.51 210.27 1294.58 211.204 1291.11 217.604Z" fill="white"/>
<path d="M234.447 215.337C229.114 221.07 226.447 227.47 225.78 236.27C225.114 245.337 226.98 250.004 232.047 252.537C236.314 254.67 240.714 252.004 240.714 247.47C240.714 245.07 239.914 244.137 237.38 243.737C230.98 242.937 230.447 237.87 235.38 222.67C237.114 217.07 238.447 212.27 238.18 212.004C238.047 211.737 236.314 213.337 234.447 215.337Z" fill="white"/>
<path d="M472.98 218.937C462.98 228.937 458.18 254.537 464.447 264.137C466.314 266.937 467.914 267.604 472.047 267.604C481.914 267.604 484.18 257.07 474.58 255.604C468.314 254.67 468.18 251.204 473.247 232.804C475.514 224.804 477.38 217.87 477.38 217.604C477.38 216.27 474.847 217.07 472.98 218.937Z" fill="white"/>
<path d="M994.181 225.87C988.981 233.604 986.048 246.804 987.914 253.204C989.381 257.87 993.114 260.937 997.381 260.937C999.381 260.937 1002.71 256.804 1002.71 254.137C1002.71 252.27 1001.78 251.604 998.848 251.604C993.114 251.604 992.714 248.137 996.581 234.404C1000.58 220.804 1000.45 220.937 998.714 220.937C998.048 220.937 995.914 223.204 994.181 225.87Z" fill="white"/>
<path d="M275.781 224.537C271.114 229.737 267.648 239.204 266.981 247.604C266.581 255.07 266.848 256.804 269.381 259.87C273.114 264.804 278.314 264.804 280.048 260.137C282.181 254.67 281.648 252.937 278.048 252.937C272.314 252.937 271.781 249.204 275.514 235.604C277.381 228.804 278.581 223.07 278.314 222.804C278.048 222.537 276.848 223.337 275.781 224.537Z" fill="white"/>
<path d="M633.78 229.204C625.113 238.937 620.713 252.137 621.647 264.804C622.18 270.67 622.98 272.67 625.913 275.204C632.313 280.67 638.713 278.404 640.713 269.87C641.647 266.404 641.38 266.27 636.847 266.27C631.913 266.27 629.38 263.737 629.38 258.537C629.38 257.07 631.38 249.204 633.913 241.07C636.313 232.937 637.913 226.27 637.513 226.27C636.98 226.27 635.247 227.604 633.78 229.204Z" fill="white"/>
<path d="M399.248 235.87C397.248 240.27 397.248 240.537 400.581 245.47C404.848 251.87 409.114 263.337 411.248 274.27L412.981 282.937L414.048 276.537C415.914 264.67 414.314 250.27 410.048 242.537C408.048 238.804 405.248 234.67 403.914 233.47C401.648 231.47 401.381 231.604 399.248 235.87Z" fill="white"/>
<path d="M314.581 249.337L309.248 260.27L318.315 264.537C323.248 266.804 328.448 268.804 329.648 268.804C332.048 268.937 343.248 250.27 341.648 248.67C341.115 248.27 336.048 245.737 330.315 243.07L319.915 238.404L314.581 249.337Z" fill="white"/>
<path d="M358.981 243.87C356.581 247.07 349.381 259.737 349.381 261.07C349.381 262.404 367.914 271.604 370.581 271.604C371.781 271.604 381.381 254.404 381.381 252.27C381.381 251.47 363.248 242.27 361.514 242.27C360.981 242.27 359.781 243.07 358.981 243.87Z" fill="white"/>
<path d="M125.38 267.604C96.447 285.07 91.3804 288.804 92.1804 291.47C92.5804 292.404 105.38 286.004 122.314 276.67C147.247 262.804 152.18 259.604 153.914 255.87C156.314 250.937 156.447 250.27 154.98 250.27C154.447 250.27 141.114 258.004 125.38 267.604Z" fill="white"/>
<path d="M936.313 253.87C931.38 256.27 927.38 261.337 926.047 266.67C924.847 271.337 925.913 271.204 931.647 266.27C936.313 262.137 942.713 261.07 946.713 263.604C948.447 264.67 948.447 265.204 946.713 267.87C937.38 282.404 934.58 292.67 938.18 299.204C944.98 312.137 963.913 310.137 985.113 294.404C990.713 290.137 996.58 285.337 997.913 283.87C1000.45 280.937 1000.45 280.937 996.713 280.937C994.713 280.937 989.513 283.07 985.247 285.737C970.713 294.537 957.78 297.604 950.047 294.004C944.58 291.604 944.713 287.87 950.58 274.137C958.18 256.137 958.447 254.67 954.047 252.937C948.847 250.937 941.38 251.337 936.313 253.87Z" fill="white"/>
<path d="M892.714 265.204C885.914 273.07 882.314 283.204 881.647 295.204C881.114 305.47 881.247 306.27 884.447 309.47C890.447 315.47 900.047 312.804 900.047 305.204C900.047 302.937 899.114 302.404 895.114 302.004C890.18 301.604 890.047 301.47 889.647 295.604C889.514 292.004 890.847 284.004 893.247 275.604C895.38 268.004 896.981 261.47 896.847 261.204C896.581 261.07 894.714 262.804 892.714 265.204Z" fill="white"/>
<path d="M1079.38 264.404C1077.25 266.137 1069.65 271.604 1062.58 276.27C1051.11 284.004 1045.91 288.937 1049.38 288.937C1051.65 288.937 1081.25 268.937 1083.25 266.004C1087.38 260.137 1085.38 259.337 1079.38 264.404Z" fill="white"/>
<path d="M528.713 299.604C503.113 312.937 499.113 315.604 497.113 319.604C495.78 322.004 494.98 324.27 495.246 324.537C496.313 325.604 555.513 295.337 557.113 293.07C558.18 291.604 558.713 289.07 558.446 287.337C558.046 284.404 556.58 284.937 528.713 299.604Z" fill="white"/>
<path d="M186.581 326.004C153.647 345.87 149.381 348.804 147.914 352.537C147.247 354.404 146.847 356.537 146.981 357.07C147.247 357.737 160.714 350.27 176.981 340.537C203.114 325.07 206.847 322.404 208.181 318.537C208.981 316.137 209.381 313.87 208.981 313.47C208.714 313.204 198.581 318.804 186.581 326.004Z" fill="white"/>
<path d="M1194.31 316.537C1193.78 316.937 1193.38 318.404 1193.38 319.604C1193.38 321.337 1191.78 322.004 1185.91 322.67C1181.91 323.07 1177.65 324.27 1176.45 325.204C1175.11 326.27 1171.51 326.804 1166.05 326.537C1156.18 326.004 1153.38 327.204 1137.38 338.937C1131.11 343.47 1123.65 348.537 1120.71 350.004C1115.38 352.67 1107.78 359.604 1110.18 359.604C1110.85 359.604 1120.45 354.537 1131.38 348.27C1150.85 337.204 1151.65 336.937 1160.05 336.937C1166.18 336.937 1170.18 336.137 1173.78 334.27C1177.65 332.137 1179.38 331.87 1181.38 332.937C1184.05 334.404 1190.18 333.47 1192.85 331.337C1195.25 329.604 1198.05 318.404 1196.45 316.804C1195.78 316.137 1194.85 316.004 1194.31 316.537Z" fill="white"/>
<path d="M1278.58 335.337C1260.45 343.204 1244.71 350.537 1243.51 351.604C1240.71 353.737 1236.85 360.937 1238.31 360.937C1240.71 360.937 1303.51 335.204 1305.51 333.47C1308.18 331.07 1313.91 320.937 1312.45 320.937C1311.91 320.937 1296.58 327.47 1278.58 335.337Z" fill="white"/>
<path d="M1348.85 331.87C1345.65 336.537 1343.25 340.67 1343.78 341.07C1344.31 341.604 1349.65 344.137 1355.65 346.67L1366.58 351.337L1372.05 342.004C1375.11 336.937 1377.38 332.537 1377.11 332.27C1376.18 331.337 1357.51 323.604 1356.18 323.604C1355.51 323.604 1352.18 327.337 1348.85 331.87Z" fill="white"/>
</svg>
